<mxfile host="app.diagrams.net" modified="2022-06-28T07:11:49.535Z" agent="5.0 (Windows NT 10.0; Win64; x64) AppleWebKit/537.36 (KHTML, like Gecko) Chrome/102.0.5005.115 Safari/537.36" etag="j1lG5-F5ijYhrMct5fna" version="18.1.3" type="github">
  <diagram id="3j3rtyjbEsOOtvEA7Fhl" name="Page-1">
    <mxGraphModel dx="1422" dy="1552" grid="1" gridSize="10" guides="1" tooltips="1" connect="1" arrows="1" fold="1" page="1" pageScale="1" pageWidth="1169" pageHeight="827" math="0" shadow="0">
      <root>
        <mxCell id="0" />
        <mxCell id="1" parent="0" />
        <mxCell id="enHAw3quS3nbIoZ9q2Qp-11" value="" style="rounded=1;whiteSpace=wrap;html=1;" vertex="1" parent="1">
          <mxGeometry x="145" y="250" width="880" height="400" as="geometry" />
        </mxCell>
        <mxCell id="enHAw3quS3nbIoZ9q2Qp-1" value="分治" style="ellipse;whiteSpace=wrap;html=1;" vertex="1" parent="1">
          <mxGeometry x="260" y="490" width="120" height="80" as="geometry" />
        </mxCell>
        <mxCell id="enHAw3quS3nbIoZ9q2Qp-2" value="归纳" style="ellipse;whiteSpace=wrap;html=1;" vertex="1" parent="1">
          <mxGeometry x="400" y="490" width="120" height="80" as="geometry" />
        </mxCell>
        <mxCell id="enHAw3quS3nbIoZ9q2Qp-3" value="假设(确认)" style="ellipse;whiteSpace=wrap;html=1;" vertex="1" parent="1">
          <mxGeometry x="540" y="490" width="120" height="80" as="geometry" />
        </mxCell>
        <mxCell id="enHAw3quS3nbIoZ9q2Qp-4" value="回溯" style="ellipse;whiteSpace=wrap;html=1;" vertex="1" parent="1">
          <mxGeometry x="840" y="490" width="120" height="80" as="geometry" />
        </mxCell>
        <mxCell id="enHAw3quS3nbIoZ9q2Qp-5" value="日常" style="rounded=1;whiteSpace=wrap;html=1;" vertex="1" parent="1">
          <mxGeometry x="240" y="420" width="300" height="48" as="geometry" />
        </mxCell>
        <mxCell id="enHAw3quS3nbIoZ9q2Qp-6" value="人工智能、机器学习、神经网络" style="rounded=1;whiteSpace=wrap;html=1;" vertex="1" parent="1">
          <mxGeometry x="580" y="420" width="305" height="48" as="geometry" />
        </mxCell>
        <mxCell id="enHAw3quS3nbIoZ9q2Qp-7" value="分支界定" style="ellipse;whiteSpace=wrap;html=1;" vertex="1" parent="1">
          <mxGeometry x="160" y="340" width="120" height="80" as="geometry" />
        </mxCell>
        <mxCell id="enHAw3quS3nbIoZ9q2Qp-8" value="贪心" style="ellipse;whiteSpace=wrap;html=1;" vertex="1" parent="1">
          <mxGeometry x="290" y="340" width="120" height="80" as="geometry" />
        </mxCell>
        <mxCell id="enHAw3quS3nbIoZ9q2Qp-9" value="动态规划" style="ellipse;whiteSpace=wrap;html=1;" vertex="1" parent="1">
          <mxGeometry x="420" y="340" width="120" height="80" as="geometry" />
        </mxCell>
        <mxCell id="enHAw3quS3nbIoZ9q2Qp-10" value="递推" style="ellipse;whiteSpace=wrap;html=1;" vertex="1" parent="1">
          <mxGeometry x="690" y="490" width="120" height="80" as="geometry" />
        </mxCell>
        <mxCell id="enHAw3quS3nbIoZ9q2Qp-12" value="思想" style="text;html=1;strokeColor=none;fillColor=none;align=center;verticalAlign=middle;whiteSpace=wrap;rounded=0;" vertex="1" parent="1">
          <mxGeometry x="130" y="240" width="60" height="30" as="geometry" />
        </mxCell>
        <mxCell id="enHAw3quS3nbIoZ9q2Qp-13" value="" style="rounded=1;whiteSpace=wrap;html=1;" vertex="1" parent="1">
          <mxGeometry x="145" y="-170" width="435" height="400" as="geometry" />
        </mxCell>
        <mxCell id="enHAw3quS3nbIoZ9q2Qp-14" value="" style="rounded=1;whiteSpace=wrap;html=1;" vertex="1" parent="1">
          <mxGeometry x="600" y="-170" width="435" height="400" as="geometry" />
        </mxCell>
        <mxCell id="enHAw3quS3nbIoZ9q2Qp-15" value="数据结构" style="text;html=1;strokeColor=none;fillColor=none;align=center;verticalAlign=middle;whiteSpace=wrap;rounded=0;" vertex="1" parent="1">
          <mxGeometry x="130" y="-190" width="60" height="30" as="geometry" />
        </mxCell>
        <mxCell id="enHAw3quS3nbIoZ9q2Qp-16" value="算法" style="text;html=1;strokeColor=none;fillColor=none;align=center;verticalAlign=middle;whiteSpace=wrap;rounded=0;" vertex="1" parent="1">
          <mxGeometry x="590" y="-180" width="60" height="30" as="geometry" />
        </mxCell>
        <mxCell id="enHAw3quS3nbIoZ9q2Qp-17" value="线性表" style="ellipse;whiteSpace=wrap;html=1;" vertex="1" parent="1">
          <mxGeometry x="170" y="-140" width="110" height="70" as="geometry" />
        </mxCell>
        <mxCell id="enHAw3quS3nbIoZ9q2Qp-18" value="散列表" style="ellipse;whiteSpace=wrap;html=1;" vertex="1" parent="1">
          <mxGeometry x="307.5" y="-140" width="110" height="70" as="geometry" />
        </mxCell>
        <mxCell id="enHAw3quS3nbIoZ9q2Qp-19" value="树" style="ellipse;whiteSpace=wrap;html=1;" vertex="1" parent="1">
          <mxGeometry x="440" y="-140" width="110" height="70" as="geometry" />
        </mxCell>
        <mxCell id="enHAw3quS3nbIoZ9q2Qp-20" value="图" style="ellipse;whiteSpace=wrap;html=1;" vertex="1" parent="1">
          <mxGeometry x="180" y="-50" width="110" height="70" as="geometry" />
        </mxCell>
      </root>
    </mxGraphModel>
  </diagram>
</mxfile>
